<svg viewBox="0 0 239 260" fill="none" xmlns="http://www.w3.org/2000/svg">
<g filter="url(#filter0_d_1_610)">
<path d="M86.5613 223.918V252C86.5613 253.105 87.4567 254 88.5613 254H164.746C165.806 254 166.684 253.143 166.742 252.085C170.091 191.379 162.054 176.612 157.569 176.859C233.864 166.374 230.842 112.45 227.82 90.7312C225.531 74.2745 217.64 61.4457 213.389 56.3172C212.972 55.8141 212.803 55.1531 212.943 54.5148C215.346 43.5858 217.643 22.0757 209.385 14.7171C209.098 14.4618 208.731 14.3177 208.348 14.2857C191.264 12.8587 175.613 23.1325 169.025 29.2247C168.473 29.7357 167.704 29.9187 166.985 29.6974C143.521 22.4814 103.621 25.7848 85.7008 28.4705C85.2686 28.5353 84.8507 28.4603 84.4658 28.2532C73.6563 22.4385 51.5419 11.986 45.0144 14.3393C38.4899 16.6916 38.7088 44.7294 39.6715 59.2205C39.7062 59.7424 39.5344 60.2481 39.2024 60.6523C29.9515 71.9121 27.1321 85.3395 26.8849 90.7312C18.0589 154.318 66.7616 174.785 94.2025 177.432C95.3751 177.545 96.2273 178.616 95.9455 179.76C93.4287 189.978 85.2788 196.991 81.2735 199.327C78.2519 201.574 70.6979 202.323 64.6548 200.825C61.1296 199.827 51.9641 195.583 43.5037 186.595C32.9281 175.361 29.9065 171.617 25.3741 169.37C21.7067 167.552 15.7788 168.205 11.4816 169.171C9.94845 169.516 9.55231 171.439 10.7062 172.506C15.1512 176.616 22.0037 183.755 26.8849 191.499C32.9281 201.085 40.4821 208.974 43.5037 211.72C47.416 215.576 60.969 222.831 84.4395 221.901C85.5897 221.855 86.5613 222.767 86.5613 223.918Z" fill="url(#paint0_linear_1_610)"/>
</g>
<defs>
<filter id="filter0_d_1_610" x="0.0389404" y="0" width="238.961" height="260" filterUnits="userSpaceOnUse" color-interpolation-filters="sRGB">
<feFlood flood-opacity="0" result="BackgroundImageFix"/>
<feColorMatrix in="SourceAlpha" type="matrix" values="0 0 0 0 0 0 0 0 0 0 0 0 0 0 0 0 0 0 127 0" result="hardAlpha"/>
<feOffset dy="-4"/>
<feGaussianBlur stdDeviation="5"/>
<feComposite in2="hardAlpha" operator="out"/>
<feColorMatrix type="matrix" values="0 0 0 0 1 0 0 0 0 1 0 0 0 0 1 0 0 0 0.1 0"/>
<feBlend mode="normal" in2="BackgroundImageFix" result="effect1_dropShadow_1_610"/>
<feBlend mode="normal" in="SourceGraphic" in2="effect1_dropShadow_1_610" result="shape"/>
</filter>
<linearGradient id="paint0_linear_1_610" x1="118.5" y1="14" x2="117.939" y2="254" gradientUnits="userSpaceOnUse">
<stop/>
<stop offset="1" stop-color="#20291D"/>
</linearGradient>
</defs>
</svg>
