<svg width="56" height="63" viewBox="0 0 56 63" fill="none" xmlns="http://www.w3.org/2000/svg">
<path d="M18.9069 55.648V59.6667C18.9069 60.7712 19.8024 61.6667 20.9069 61.6667H37.3099C38.3693 61.6667 39.2469 60.8333 39.2955 59.775C39.9462 45.6073 38.0008 42.1067 36.8997 42.1672C56.2324 39.5168 55.4668 25.8861 54.7011 20.3959C54.1984 16.7911 52.6298 13.875 51.5191 12.3173C51.139 11.7842 50.9669 11.1205 51.0855 10.4766C51.59 7.73756 51.9058 3.40617 50.3327 1.49712C50.089 1.20144 49.7128 1.0604 49.33 1.04566C45.689 0.905466 42.3549 2.78653 40.4994 4.25551C39.9104 4.72179 39.1323 4.90541 38.4034 4.72375C32.605 3.27867 23.6961 3.95669 19.1852 4.58616C18.7533 4.64644 18.3182 4.56985 17.9318 4.36758C15.0713 2.87004 9.94823 0.521483 8.37923 1.08578C6.81374 1.64881 6.78035 8.03325 6.98832 11.8196C7.01706 12.3429 6.84293 12.8536 6.52936 13.2735C4.48473 16.0111 3.84446 19.109 3.78532 20.3959C1.71447 35.2792 12.1422 40.8169 19.2181 42.0866C20.378 42.2948 21.2437 43.3842 20.7085 44.4341C19.8166 46.1836 18.3662 47.3817 17.567 47.8466C16.8014 48.4146 14.8873 48.6039 13.356 48.2253C12.4627 47.9729 10.1402 46.9001 7.9964 44.6283C5.31662 41.7886 4.55097 40.842 3.40249 40.274C3.15768 40.153 2.87312 40.0753 2.56684 40.0309C1.00988 39.8055 0.53247 41.8233 1.58123 42.9959C2.3465 43.8516 3.13496 44.8385 3.78532 45.8677C5.31662 48.2909 7.23075 50.2851 7.9964 50.9792C8.89615 51.8639 11.8081 53.4562 16.7848 53.5672C17.9355 53.5928 18.9069 54.4969 18.9069 55.648Z" stroke="white" stroke-width="1.5"/>
</svg>
